<?xml version="1.0" encoding="UTF-8"?>
<!-- Generator: Adobe Illustrator 19.1.0, SVG Export Plug-In . SVG Version: 6.00 Build 0)  -->
<svg version="1.1" id="Capa_1" xmlns="http://www.w3.org/2000/svg" xmlns:xlink="http://www.w3.org/1999/xlink" x="0px" y="0px" viewBox="288 65.6 503 503" style="enable-background:new 288 65.6 503 503;" xml:space="preserve">
<style type="text/css">
	.st0{fill:none;stroke:#00E5FF;stroke-width:44;stroke-miterlimit:10;}
</style>
<path class="st0" d="M645.5592,113.5237C718.9211,151.8221,769,228.6127,769,317.1c0,126.7494-102.7507,229.5-229.5,229.5  c-63.3747,0-120.7497-25.6876-162.281-67.219"/>
<path class="st0" d="M468.8407,205.4584c21.2626-12.4975,46.1221-18.6825,70.7592-17.7535  c24.1406,0.9103,47.9283,8.8101,67.8835,22.4122c18.818,12.827,34.1157,30.7248,43.9439,51.2626  c10.8348,22.6414,14.7507,48.425,11.3917,73.2837c-3.1499,23.3119-12.8664,45.5891-27.6404,63.8806  c-14.5582,18.0243-34.0178,31.9593-55.7309,40.0298c-23.6971,8.8079-49.9127,10.3521-74.5222,4.6238  c-22.8141-5.3104-43.9636-17.0045-60.7536-33.3193c-16.7967-16.3213-28.9491-37.2127-34.9252-59.8536  c-6.2843-23.8085-5.4758-49.3005,2.0402-72.7334c1.8704-5.8313,4.1524-11.5314,6.8373-17.0357"/>
</svg>