<?xml version="1.0" encoding="UTF-8"?>
<!-- Generator: Adobe Illustrator 19.1.0, SVG Export Plug-In . SVG Version: 6.00 Build 0)  -->
<svg enable-background="new 288 65.6 503 503" version="1.1" viewBox="288 65.6 503 503" xml:space="preserve" xmlns="http://www.w3.org/2000/svg" xmlns:cc="http://creativecommons.org/ns#" xmlns:dc="http://purl.org/dc/elements/1.1/" xmlns:rdf="http://www.w3.org/1999/02/22-rdf-syntax-ns#"><metadata><rdf:RDF><cc:Work rdf:about=""><dc:format>image/svg+xml</dc:format><dc:type rdf:resource="http://purl.org/dc/dcmitype/StillImage"/></cc:Work></rdf:RDF></metadata>
<style type="text/css">
	.st0{fill:none;stroke:#00E5FF;stroke-width:44;stroke-miterlimit:10;}
</style>


<g transform="matrix(19.95 0 0 19.95 300.1 77.702)" fill="none" stroke="#00e5ff" stroke-linecap="round" stroke-linejoin="round" stroke-width="1.5"><path d="m0 0h24v24h-24z" fill="none" stroke="none"/><line x1="9.5" x2="9.51" y1="11" y2="11"/><line x1="14.5" x2="14.51" y1="11" y2="11"/><path d="m9.5 15a3.5 3.5 0 0 0 5 0"/><path d="m7 5h1v-2h8v2h1a3 3 0 0 1 3 3v9a3 3 0 0 1-3 3v1h-10v-1a3 3 0 0 1-3-3v-9a3 3 0 0 1 3-3"/></g></svg>
